<svg width="128" height="128" viewBox="0 0 128 128" fill="none" xmlns="http://www.w3.org/2000/svg">
<circle cx="64" cy="64" r="64" fill="#96C8AD"/>
<path fill-rule="evenodd" clip-rule="evenodd" d="M64 53.25C69.8953 53.25 74.6744 48.493 74.6744 42.625C74.6744 36.757 69.8953 32 64 32C58.1047 32 53.3256 36.757 53.3256 42.625C53.3256 48.493 58.1047 53.25 64 53.25ZM64 57C66.8898 57 69.5836 56.1502 71.8437 54.6894C74.3421 55.6396 76.6586 57.0419 78.6728 58.8414L64 64.3182L49.3272 58.8414C51.3414 57.0419 53.6579 55.6397 56.1563 54.6894C58.4164 56.1502 61.1102 57 64 57ZM86.6046 70.75H85.3488C84.3085 70.75 83.4651 71.5895 83.4651 72.625V77.625C83.4651 78.6605 84.3085 79.5 85.3488 79.5H86.6046C89.0321 79.5 91 77.5412 91 75.125C91 72.7088 89.0321 70.75 86.6046 70.75ZM42.0233 62.8256C42.0233 62.2106 42.3262 61.6349 42.834 61.2845C43.3417 60.934 43.9899 60.8539 44.5684 61.07L62.1163 67.62V96L43.2455 88.9563C42.5104 88.6819 42.0233 87.9823 42.0233 87.2006V83.25H42.6512C45.7672 83.25 48.3023 80.7266 48.3023 77.625V72.625C48.3023 69.5234 45.7672 67 42.6512 67H42.0233V62.8256ZM79.6977 77.625V72.625C79.6977 69.5234 82.2328 67 85.3488 67H85.9767V62.8256C85.9767 62.2106 85.6738 61.6349 85.166 61.2845C84.6581 60.934 84.0099 60.8539 83.4316 61.07L65.8837 67.62V96L84.7545 88.9563C85.4896 88.6819 85.9767 87.9823 85.9767 87.2006V83.25H85.3488C82.2328 83.25 79.6977 80.7266 79.6977 77.625ZM42.6512 70.75C43.6915 70.75 44.5349 71.5895 44.5349 72.625V77.625C44.5349 78.6605 43.6915 79.5 42.6512 79.5H41.3953C38.9679 79.5 37 77.5412 37 75.125C37 72.7088 38.9679 70.75 41.3953 70.75H42.6512Z" fill="white"/>
</svg>
