<svg width="128" height="128" viewBox="0 0 128 128" fill="none" xmlns="http://www.w3.org/2000/svg">
<circle cx="64" cy="64" r="64" fill="#8CD4E5"/>
<path fill-rule="evenodd" clip-rule="evenodd" d="M40.5766 46.0382L38.9341 46.1851C38.066 46.2628 37.2967 45.6288 37.2036 44.7591C36.9781 42.6476 37.0174 39.4793 38.2073 38.2213C39.9637 36.3645 42.1368 36.3458 43.5402 36.6017C44.6442 34.4626 46.8685 33 49.4345 33C52.0005 33 54.2247 34.4628 55.3285 36.6017C56.732 36.3456 58.9047 36.3645 60.6614 38.2213C61.8516 39.4793 61.8909 42.6475 61.6648 44.7591C61.5719 45.6288 60.8024 46.2628 59.9342 46.1851L58.2918 46.0382C57.3473 45.9538 56.6819 45.0678 56.8664 44.1344C57.1484 42.708 57.246 40.7285 56.0657 39.5042C56.0661 39.5208 56.0667 39.5374 56.0673 39.5539C56.0685 39.5888 56.0697 39.6235 56.0697 39.6586C56.0697 43.3358 53.0988 46.317 49.4343 46.317C45.7698 46.317 42.7988 43.3358 42.7988 39.6586C42.7988 39.6247 42.8 39.5911 42.8011 39.5575C42.8017 39.5398 42.8023 39.522 42.8028 39.5042C41.6226 40.7284 41.72 42.708 42.0019 44.1344C42.1868 45.0678 41.5211 45.9538 40.5766 46.0382ZM85.3283 41.1178C85.3283 44.7953 82.3574 47.7764 78.6927 47.7764C75.0279 47.7764 72.057 44.7953 72.057 41.1178C72.057 37.4404 75.0279 34.4593 78.6927 34.4593C82.3574 34.4593 85.3283 37.4404 85.3283 41.1178ZM95.6024 67.9539L85.39 50.3645C84.9009 49.5219 83.9075 48.9264 83.159 48.9264H74.4663C73.7177 48.9264 72.7244 49.5219 72.2352 50.3645L64.5409 63.617L55.9994 48.9055C55.4558 47.969 54.4742 47.4498 53.4663 47.4517C53.4617 47.4514 53.4571 47.4511 53.4525 47.4508C53.4387 47.4498 53.4248 47.4489 53.4108 47.4489H45.1988C45.1848 47.4489 45.1709 47.4498 45.1571 47.4508C45.1525 47.4511 45.1479 47.4514 45.1433 47.4517C44.1354 47.4497 43.1539 47.9688 42.6102 48.9055L32.3977 66.4948C31.5853 67.8938 32.0572 69.6887 33.4514 70.5039C33.9141 70.7744 34.4201 70.9029 34.9195 70.9029C35.9251 70.9029 36.9039 70.3813 37.4467 69.4466L41.9511 61.6883V65.0099L39.9351 79.5865C39.7654 80.8143 40.7159 81.9097 41.9512 81.9097V90.832C41.9512 92.5095 43.2512 93.9383 44.9219 93.998C46.6759 94.0606 48.1177 92.6523 48.1177 90.9061V81.9095H50.5537V90.8318C50.5537 92.5095 51.8537 93.9383 53.5246 93.9978C55.2786 94.0603 56.72 92.6522 56.72 90.906V81.9094C57.9553 81.9094 58.9058 80.814 58.7361 79.5862L56.72 65.0094V61.7945L61.1625 69.4463L61.1802 69.4769C61.3821 69.8255 62.386 71.5592 63.0763 71.9628C63.539 72.2331 64.045 72.3618 64.5444 72.3618C65.55 72.3618 66.5288 71.8403 67.0716 70.9054L71.449 63.3657L71.4069 89.3164C71.4069 91.0251 72.7871 92.4102 74.4899 92.4102C74.492 92.4102 74.494 92.4101 74.496 92.41C74.4978 92.4099 74.4995 92.4098 74.5013 92.4096C74.5045 92.4094 74.5077 92.4092 74.511 92.4091C74.5182 92.4091 74.525 92.4102 74.5323 92.4102C76.2351 92.4102 77.6156 91.0251 77.6156 89.3164L77.5734 73.6581C77.5734 73.0071 78.0628 72.4387 78.7103 72.3967C79.4197 72.3507 80.0093 72.9143 80.0093 73.6163V89.2421C80.0093 90.9196 81.3093 92.3484 82.98 92.4082C84.734 92.4709 86.1758 91.0626 86.1758 89.3164V63.3658L90.5532 70.9056C91.096 71.8404 92.0748 72.3619 93.0805 72.3619C93.5799 72.3619 94.086 72.2333 94.5486 71.9629C95.9429 71.1477 96.4146 69.3528 95.6024 67.9539Z" fill="white"/>
</svg>
