<svg width="128" height="128" viewBox="0 0 128 128" fill="none" xmlns="http://www.w3.org/2000/svg">
<circle cx="64" cy="64" r="64" fill="#FDCF5A"/>
<path fill-rule="evenodd" clip-rule="evenodd" d="M66.5428 53.3284L77.4542 38.6153C77.8071 38.1394 78.3636 37.859 78.9549 37.859H88.443C90.8768 37.859 93.1151 38.709 94.8827 40.1259C94.1622 35.5281 90.1846 32 85.3997 32H76.3591C73.5241 32 70.8496 33.2461 69.0215 35.4189L69.0206 35.42C69.0119 35.4304 69.0031 35.4409 68.9947 35.4514L60.5093 46.0095C60.2415 46.3429 60.0954 46.758 60.0954 47.186V53.3285H66.5428V53.3284ZM79.8949 41.609H88.4431C91.8463 41.609 94.6552 44.2079 95 47.5303V63.7028C95 64.7383 94.1627 65.5778 93.1299 65.5778H83.8162C82.9172 65.5778 82.1453 64.9362 81.9787 64.0505L80.9335 58.5001C80.0708 58.8893 79.3601 59.5909 78.9736 60.4856C78.3476 65.0802 78.7109 69.8495 80.0269 74.2939L83.2215 85.2191C83.7019 84.7884 84.1275 84.3486 84.4914 83.903C85.1455 83.1016 86.3239 82.984 87.1229 83.6401C87.9222 84.2961 88.0395 85.4775 87.3851 86.2786C85.2178 88.9324 81.4853 91.3516 76.8751 93.0909C71.8311 94.994 66.0332 96 60.1086 96C54.6348 96 49.1098 94.9501 44.1307 92.9638C39.7412 91.2123 35.9688 88.8042 33.5083 86.1831C32.8005 85.4291 32.8363 84.2424 33.5883 83.5328C34.3403 82.8231 35.5239 82.8589 36.2318 83.6131C36.4752 83.8722 36.7365 84.1294 37.0114 84.384C37.0114 84.384 40.8806 71.1929 41.0845 70.2811C41.7026 67.9656 42.0502 65.7739 41.8702 61.7835C41.8914 59.1855 44.0058 57.0784 46.6017 57.0784H67.4828C68.0742 57.0784 68.6307 56.798 68.9835 56.3221L79.8949 41.609ZM51.4659 77.0156L47.5576 90.2235C51.5468 91.5516 55.8424 92.25 60.1087 92.2501C64.4282 92.2501 68.6607 91.6743 72.5268 90.5761L68.553 77.0174C67.2351 77.4365 65.8507 77.6536 64.4626 77.6536H55.5616C54.1716 77.6536 52.7853 77.4357 51.4659 77.0156ZM38.1299 61.8226C38.1299 61.8514 38.1305 61.8802 38.1319 61.9089C38.3089 65.7599 37.968 67.5756 37.2951 69.9496H35.4743C34.4415 69.9496 33.6043 69.1101 33.6043 68.0746V56.4206C33.6043 50.7486 38.2066 46.1341 43.8636 46.1341H44.9686C49.5515 46.1341 53.4413 49.1629 54.7537 53.3285H46.6017C41.9302 53.3285 38.1299 57.1389 38.1299 61.8226Z" fill="white"/>
</svg>
