<svg width="29" height="31" viewBox="0 0 29 31" fill="none" xmlns="http://www.w3.org/2000/svg">
<path d="M14.5 2.75808C18.3715 2.75808 18.8307 2.77338 20.3592 2.84738C22.0098 2.92647 23.5408 3.27601 24.7189 4.51983C25.897 5.76364 26.2281 7.37996 26.303 9.12257C26.3731 10.7363 26.3876 11.2211 26.3876 15.3085C26.3876 19.3958 26.3731 19.8806 26.303 21.4944C26.2281 23.237 25.897 24.8533 24.7189 26.0971C23.5408 27.3409 22.0098 27.6905 20.3592 27.7696C18.8307 27.8436 18.3715 27.8589 14.5 27.8589C10.6285 27.8589 10.1693 27.8436 8.64079 27.7696C6.99021 27.6905 5.45925 27.3409 4.28113 26.0971C3.103 24.8533 2.77192 23.237 2.697 21.4944C2.62692 19.8806 2.61242 19.3958 2.61242 15.3085C2.61242 11.2211 2.62692 10.7363 2.697 9.12257C2.77192 7.37996 3.103 5.76364 4.28113 4.51983C5.45925 3.27601 6.99021 2.92647 8.64079 2.84738C10.1693 2.77338 10.6285 2.75808 14.5 2.75808ZM14.5 0C10.562 0 10.0678 0.0178599 8.52117 0.0918508C6.16492 0.205389 4.09504 0.815176 2.43358 2.56927C0.772125 4.32337 0.194542 6.50865 0.087 8.99628C0.0169167 10.6292 0 11.1509 0 15.3085C0 19.466 0.0169167 19.9878 0.087 21.6207C0.194542 24.1083 0.772125 26.2936 2.43358 28.0477C4.09504 29.8018 6.16492 30.4116 8.52117 30.5251C10.0678 30.5991 10.562 30.6169 14.5 30.6169C18.438 30.6169 18.9322 30.5991 20.4788 30.5251C22.8351 30.4116 24.905 29.8018 26.5664 28.0477C28.2279 26.2936 28.8055 24.1083 28.913 21.6207C28.9831 19.9878 29 19.466 29 15.3085C29 11.1509 28.9831 10.6292 28.913 8.99628C28.8055 6.50865 28.2279 4.32337 26.5664 2.56927C24.905 0.815176 22.8351 0.205389 20.4788 0.0918508C18.9322 0.0178599 18.438 0 14.5 0Z" fill="white"/>
<path d="M14.5 7.44751C10.388 7.44751 7.0542 10.9672 7.0542 15.3085C7.0542 19.6497 10.388 23.1694 14.5 23.1694C18.6119 23.1694 21.9457 19.6497 21.9457 15.3085C21.9457 10.9672 18.6119 7.44751 14.5 7.44751ZM14.5 20.4113C11.8308 20.4113 9.66662 18.1265 9.66662 15.3085C9.66662 12.4904 11.8308 10.2056 14.5 10.2056C17.1692 10.2056 19.3333 12.4904 19.3333 15.3085C19.3333 18.1265 17.1692 20.4113 14.5 20.4113Z" fill="white"/>
<path d="M22.2405 8.97363C23.2014 8.97363 23.9805 8.15116 23.9805 7.1366C23.9805 6.12203 23.2014 5.29956 22.2405 5.29956C21.2795 5.29956 20.5005 6.12203 20.5005 7.1366C20.5005 8.15116 21.2795 8.97363 22.2405 8.97363Z" fill="white"/>
</svg>
