<svg width="163" height="43" viewBox="0 0 163 43" fill="none" xmlns="http://www.w3.org/2000/svg">
<path d="M9.31641 16.5742C9.14714 17.1211 9.00391 17.7461 8.88672 18.4492L8.65234 20.3047L8.51562 21.7109C8.45052 22.2448 8.3724 22.7135 8.28125 23.1172L8.22266 23.5469C8.19661 23.7682 8.29427 23.8789 8.51562 23.8789C8.6849 23.8789 8.85417 23.8594 9.02344 23.8203L10.8594 23.4102C11.25 23.319 11.3932 23.0651 11.2891 22.6484L11.1133 22.0234L10.5859 20.4414L10.1758 19.0938L9.74609 17.7266L9.55078 17.1602L9.31641 16.5742ZM0.214844 37.9609L0.234375 37.3164C0.221354 37.056 0.234375 36.763 0.273438 36.4375C0.325521 36.099 0.351562 35.7604 0.351562 35.4219C0.3125 34.4974 0.416667 33.1432 0.664062 31.3594L0.898438 29.3281L1.13281 27.0039L1.36719 24.6992L1.48438 23.9375L1.60156 23.1758L1.83594 20.793L2.08984 18.3906L2.24609 17.1016L2.42188 15.793L2.57812 14.582L2.75391 13.3711C2.88411 12.4076 2.95573 11.6003 2.96875 10.9492L3.02734 10.4805L3.10547 10.0117L3.39844 7.55078C3.4375 7.1862 3.59375 6.95833 3.86719 6.86719C4.24479 6.72396 4.5638 6.44401 4.82422 6.02734L4.94141 5.87109L5.05859 5.73438C5.20182 5.59115 5.33203 5.57161 5.44922 5.67578C5.57943 5.76693 5.77474 5.86458 6.03516 5.96875L6.34766 6.08594L6.62109 6.24219C6.86849 6.41146 7.16797 6.5026 7.51953 6.51562C8.37891 6.52865 9.01693 7.01042 9.43359 7.96094C9.96745 9.17188 10.5534 10.9232 11.1914 13.2148L11.582 14.543L11.9336 15.8711L12.1289 16.4375L12.3242 16.9844L12.6953 18.1172L13.0664 19.2695C13.3789 20.207 13.6068 20.9753 13.75 21.5742C13.8802 22.056 14.0755 22.5508 14.3359 23.0586L14.6094 23.7422L14.8438 24.4258L15.8203 26.8672L15.9375 27.1016L15.9961 27.3359C16.0221 27.7266 16.1263 28.1562 16.3086 28.625L16.543 29.2109L16.8164 29.8164C17.0508 30.3112 17.2982 30.8971 17.5586 31.5742L18.2031 33.3516C18.4115 33.9115 18.6589 34.5169 18.9453 35.168C19.1146 35.5586 19.2318 35.9753 19.2969 36.418C19.3229 36.6003 19.3229 36.7956 19.2969 37.0039C19.2318 37.4987 18.9453 37.7852 18.4375 37.8633C18.2161 37.9023 18.0469 37.8372 17.9297 37.668L17.4609 37.0234L16.9922 36.3789C16.6146 35.8711 16.3346 35.4154 16.1523 35.0117L15.3906 33.4492L14.6484 31.8867C14.1016 30.6888 13.6589 29.6211 13.3203 28.6836L12.8125 27.2383L12.3047 25.793L12.2461 25.5977L12.168 25.3828C12.0768 25.1484 11.888 25.0508 11.6016 25.0898C10.5469 25.2331 9.70052 25.2656 9.0625 25.1875C8.61979 25.1224 8.32682 25.1484 8.18359 25.2656C8.04036 25.3828 7.9362 25.6628 7.87109 26.1055L6.66016 33.7227L6.46484 34.6602L6.01562 36.5742C5.78125 37.7461 5.4362 38.6706 4.98047 39.3477C4.86328 39.5299 4.77214 39.7839 4.70703 40.1094C4.62891 40.526 4.36198 40.9036 3.90625 41.2422C3.45052 41.5677 3.00781 41.7174 2.57812 41.6914L1.64062 41.6523C1.39323 41.6654 1.15885 41.6003 0.9375 41.457L0.664062 41.2422L0.390625 40.9883C0.130208 40.7409 0.0130208 40.3828 0.0390625 39.9141L0.214844 37.9609ZM31.5039 22.3555C31.2826 24.3737 31.1589 26.8802 31.1328 29.875V33.5273L31.0547 37.1406C31.0156 38.0521 31.1003 38.6185 31.3086 38.8398C31.5039 39.0742 32.0378 39.1849 32.9102 39.1719L35.0977 39.2109L37.2852 39.2891C39.069 39.3411 40.5208 39.3151 41.6406 39.2109L41.875 39.1719L42.1094 39.1328C42.2786 39.1328 42.3763 39.1979 42.4023 39.3281C42.4284 39.4453 42.3958 39.5951 42.3047 39.7773C42.2396 39.9336 42.1419 40.0833 42.0117 40.2266C41.8555 40.3958 41.6211 40.4805 41.3086 40.4805L39.5312 40.5586L37.7539 40.6953C36.3086 40.7865 35.1237 40.7865 34.1992 40.6953C33.0924 40.5781 31.9401 40.7799 30.7422 41.3008C29.5573 41.8086 28.3529 42.0234 27.1289 41.9453L26.6406 41.9258C26.4583 41.9388 26.3086 41.9648 26.1914 42.0039C25.5404 42.2643 25.0716 42.2253 24.7852 41.8867C24.5898 41.6654 24.4336 41.2357 24.3164 40.5977C23.7174 37.1341 23.3529 33.0391 23.2227 28.3125L23.125 22.1406L23.0664 15.9688C23.0534 14.9531 23.0664 13.7552 23.1055 12.375L23.2422 8.76172C23.3464 5.80599 23.3138 3.41016 23.1445 1.57422C23.1185 1.17057 23.2422 0.923177 23.5156 0.832031C24.8438 0.35026 26.4193 0.701823 28.2422 1.88672C29.2188 2.53776 29.8633 3.44922 30.1758 4.62109C30.2799 5.01172 30.3711 5.54557 30.4492 6.22266L30.5273 7.02344L30.6445 7.84375C31.3216 11.7891 31.6276 16.1055 31.5625 20.793L31.543 21.7109L31.5234 22.082L31.5039 22.3555ZM54.1211 16.5742C53.9518 17.1211 53.8086 17.7461 53.6914 18.4492L53.457 20.3047L53.3203 21.7109C53.2552 22.2448 53.1771 22.7135 53.0859 23.1172L53.0273 23.5469C53.0013 23.7682 53.099 23.8789 53.3203 23.8789C53.4896 23.8789 53.6589 23.8594 53.8281 23.8203L55.6641 23.4102C56.0547 23.319 56.1979 23.0651 56.0938 22.6484L55.918 22.0234L55.3906 20.4414L54.9805 19.0938L54.5508 17.7266L54.3555 17.1602L54.1211 16.5742ZM45.0195 37.9609L45.0391 37.3164C45.026 37.056 45.0391 36.763 45.0781 36.4375C45.1302 36.099 45.1562 35.7604 45.1562 35.4219C45.1172 34.4974 45.2214 33.1432 45.4688 31.3594L45.7031 29.3281L45.9375 27.0039L46.1719 24.6992L46.2891 23.9375L46.4062 23.1758L46.6406 20.793L46.8945 18.3906L47.0508 17.1016L47.2266 15.793L47.3828 14.582L47.5586 13.3711C47.6888 12.4076 47.7604 11.6003 47.7734 10.9492L47.832 10.4805L47.9102 10.0117L48.2031 7.55078C48.2422 7.1862 48.3984 6.95833 48.6719 6.86719C49.0495 6.72396 49.3685 6.44401 49.6289 6.02734L49.7461 5.87109L49.8633 5.73438C50.0065 5.59115 50.1367 5.57161 50.2539 5.67578C50.3841 5.76693 50.5794 5.86458 50.8398 5.96875L51.1523 6.08594L51.4258 6.24219C51.6732 6.41146 51.9727 6.5026 52.3242 6.51562C53.1836 6.52865 53.8216 7.01042 54.2383 7.96094C54.7721 9.17188 55.3581 10.9232 55.9961 13.2148L56.3867 14.543L56.7383 15.8711L56.9336 16.4375L57.1289 16.9844L57.5 18.1172L57.8711 19.2695C58.1836 20.207 58.4115 20.9753 58.5547 21.5742C58.6849 22.056 58.8802 22.5508 59.1406 23.0586L59.4141 23.7422L59.6484 24.4258L60.625 26.8672L60.7422 27.1016L60.8008 27.3359C60.8268 27.7266 60.931 28.1562 61.1133 28.625L61.3477 29.2109L61.6211 29.8164C61.8555 30.3112 62.1029 30.8971 62.3633 31.5742L63.0078 33.3516C63.2161 33.9115 63.4635 34.5169 63.75 35.168C63.9193 35.5586 64.0365 35.9753 64.1016 36.418C64.1276 36.6003 64.1276 36.7956 64.1016 37.0039C64.0365 37.4987 63.75 37.7852 63.2422 37.8633C63.0208 37.9023 62.8516 37.8372 62.7344 37.668L62.2656 37.0234L61.7969 36.3789C61.4193 35.8711 61.1393 35.4154 60.957 35.0117L60.1953 33.4492L59.4531 31.8867C58.9062 30.6888 58.4635 29.6211 58.125 28.6836L57.6172 27.2383L57.1094 25.793L57.0508 25.5977L56.9727 25.3828C56.8815 25.1484 56.6927 25.0508 56.4062 25.0898C55.3516 25.2331 54.5052 25.2656 53.8672 25.1875C53.4245 25.1224 53.1315 25.1484 52.9883 25.2656C52.8451 25.3828 52.7409 25.6628 52.6758 26.1055L51.4648 33.7227L51.2695 34.6602L50.8203 36.5742C50.5859 37.7461 50.2409 38.6706 49.7852 39.3477C49.668 39.5299 49.5768 39.7839 49.5117 40.1094C49.4336 40.526 49.1667 40.9036 48.7109 41.2422C48.2552 41.5677 47.8125 41.7174 47.3828 41.6914L46.4453 41.6523C46.1979 41.6654 45.9635 41.6003 45.7422 41.457L45.4688 41.2422L45.1953 40.9883C44.9349 40.7409 44.8177 40.3828 44.8438 39.9141L45.0195 37.9609ZM76.3086 22.3555C76.0872 24.3737 75.9635 26.8802 75.9375 29.875V33.5273L75.8594 37.1406C75.8203 38.0521 75.9049 38.6185 76.1133 38.8398C76.3086 39.0742 76.8424 39.1849 77.7148 39.1719L79.9023 39.2109L82.0898 39.2891C83.8737 39.3411 85.3255 39.3151 86.4453 39.2109L86.6797 39.1719L86.9141 39.1328C87.0833 39.1328 87.181 39.1979 87.207 39.3281C87.2331 39.4453 87.2005 39.5951 87.1094 39.7773C87.0443 39.9336 86.9466 40.0833 86.8164 40.2266C86.6602 40.3958 86.4258 40.4805 86.1133 40.4805L84.3359 40.5586L82.5586 40.6953C81.1133 40.7865 79.9284 40.7865 79.0039 40.6953C77.8971 40.5781 76.7448 40.7799 75.5469 41.3008C74.362 41.8086 73.1576 42.0234 71.9336 41.9453L71.4453 41.9258C71.263 41.9388 71.1133 41.9648 70.9961 42.0039C70.3451 42.2643 69.8763 42.2253 69.5898 41.8867C69.3945 41.6654 69.2383 41.2357 69.1211 40.5977C68.5221 37.1341 68.1576 33.0391 68.0273 28.3125L67.9297 22.1406L67.8711 15.9688C67.8581 14.9531 67.8711 13.7552 67.9102 12.375L68.0469 8.76172C68.151 5.80599 68.1185 3.41016 67.9492 1.57422C67.9232 1.17057 68.0469 0.923177 68.3203 0.832031C69.6484 0.35026 71.224 0.701823 73.0469 1.88672C74.0234 2.53776 74.668 3.44922 74.9805 4.62109C75.0846 5.01172 75.1758 5.54557 75.2539 6.22266L75.332 7.02344L75.4492 7.84375C76.1263 11.7891 76.4323 16.1055 76.3672 20.793L76.3477 21.7109L76.3281 22.082L76.3086 22.3555ZM105.176 28.4883C104.954 28.6836 104.766 28.944 104.609 29.2695C104.401 29.7122 104.154 30.1029 103.867 30.4414C103.633 30.7018 103.392 31.0208 103.145 31.3984L102.52 32.4141C102.129 33.0651 101.523 33.8594 100.703 34.7969L100.215 35.2852L99.7266 35.7734C99.1406 36.3724 98.6198 36.7826 98.1641 37.0039L97.9102 37.1797L97.6562 37.3555C97.4349 37.4987 97.2786 37.668 97.1875 37.8633L97.0703 38.0977L96.9141 38.3125C96.6276 38.8073 96.1849 38.9831 95.5859 38.8398C95.3385 38.7747 95.026 38.6641 94.6484 38.5078C93.9453 38.2214 93.125 37.7982 92.1875 37.2383C91.4844 36.8086 91.0482 36.1445 90.8789 35.2461C90.7747 34.7383 90.7096 34.1719 90.6836 33.5469C90.6445 32.4531 90.5859 31.5352 90.5078 30.793C90.4557 30.3372 90.4232 29.7448 90.4102 29.0156L90.3711 27.2578L90.2344 25.168L90.1367 23.0977L89.9805 21.0664C89.9284 20.2331 89.9023 19.556 89.9023 19.0352L89.8633 17.6875L89.7656 16.3398C89.6615 14.6862 89.6094 12.6094 89.6094 10.1094V6.16406C89.6224 5.70833 89.8372 5.54557 90.2539 5.67578L90.5273 5.75391L90.7812 5.79297C90.9896 5.77995 91.2435 5.79948 91.543 5.85156L92.3047 5.96875C92.9297 6.04688 93.3919 6.24219 93.6914 6.55469C93.7826 6.64583 93.9258 6.70443 94.1211 6.73047L94.3555 6.76953L94.5312 6.86719L94.6875 7.00391L94.8242 7.16016C94.9284 7.27734 95.0391 7.35547 95.1562 7.39453C96.1458 7.69401 96.6992 8.4362 96.8164 9.62109L96.9727 11.0859L97.1094 12.5312L97.1875 13.8398L97.3047 15.1289L97.3633 16.1445L97.3828 17.1406L97.4023 17.9023L97.4609 18.6836L97.5 19.3672L97.5391 23.1367L97.5586 23.957L97.6172 24.7578L97.6367 25.2852V25.832L97.7734 28.2539C97.8255 29.2305 97.8451 30.0378 97.832 30.6758C97.819 31.2357 98.0924 31.7305 98.6523 32.1602C98.8346 32.3034 99.0234 32.2904 99.2188 32.1211C99.388 31.9779 99.5573 31.75 99.7266 31.4375L101.719 27.707L103.066 25.1875C103.288 24.7708 103.529 24.276 103.789 23.7031L104.453 22.1797L104.785 21.3984L105.117 20.6172C105.391 19.9661 105.534 19.3477 105.547 18.7617L105.605 17.0625L105.664 15.3828C105.651 14.4193 105.697 13.293 105.801 12.0039C105.84 11.4961 105.951 10.8646 106.133 10.1094C106.237 9.70573 106.543 9.30208 107.051 8.89844C107.741 8.33854 108.568 7.8763 109.531 7.51172C110.182 7.26432 110.814 7.36198 111.426 7.80469L111.543 7.90234L111.66 8C112.246 8.29948 112.507 8.79427 112.441 9.48438L112.383 10.8906V12.3164L112.363 12.6289V12.9219C112.428 13.3646 112.467 13.8919 112.48 14.5039L112.5 16.0859L112.559 17.6289L112.656 19.6211L112.715 20.2266L112.734 20.4219L112.754 20.6172L112.734 21.5742L112.773 22.5312C112.812 23.3776 112.812 24.0221 112.773 24.4648C112.708 25.2721 112.669 26.4115 112.656 27.8828L112.637 29.6016L112.559 31.3008L112.441 33C112.389 33.625 112.305 34.1784 112.188 34.6602L112.148 35.0508C112.161 35.5065 112.005 35.9557 111.68 36.3984C111.484 36.6589 111.276 37.069 111.055 37.6289C110.742 38.3971 110.143 38.8659 109.258 39.0352C108.789 39.1263 108.177 39.1654 107.422 39.1523C106.94 39.1393 106.706 38.9245 106.719 38.5078C106.745 37.987 106.569 37.4727 106.191 36.9648C106.1 36.8346 106.042 36.6914 106.016 36.5352L105.801 35.4414C105.71 35.0117 105.658 34.6471 105.645 34.3477L105.566 32.375L105.469 30.4219L105.371 29.8164L105.312 29.5039L105.234 29.2109C105.169 28.9505 105.15 28.7096 105.176 28.4883ZM132.344 26.3984C132.396 25.0833 132.376 24.0807 132.285 23.3906C132.246 23 132.22 22.5312 132.207 21.9844L132.227 20.5781V19.4648C132.161 17.2904 132.161 14.8359 132.227 12.1016L132.324 10.5977L132.461 9.07422L132.52 7.23828C132.533 6.78255 132.572 6.41146 132.637 6.125C132.702 5.91667 132.793 5.72786 132.91 5.55859C133.079 5.32422 133.288 5.23958 133.535 5.30469L135.547 5.79297C135.911 5.88411 136.243 6.04688 136.543 6.28125C136.764 6.47656 136.96 6.61979 137.129 6.71094C137.689 7.01042 138.079 7.52474 138.301 8.25391L139.023 10.9688C139.089 11.2161 139.128 11.4766 139.141 11.75L139.199 14.2305L139.258 15.9883L139.277 17.7461C139.316 19.4648 139.277 20.793 139.16 21.7305L139.141 21.8867V22.043C139.154 22.1471 139.232 22.2122 139.375 22.2383L139.414 22.3164L139.453 22.4531L139.434 22.8438L139.121 25.8711L139.082 25.9883C139.069 26.0143 139.036 26.0143 138.984 25.9883C138.984 25.9883 138.926 25.9102 138.809 25.7539L138.652 26.7695L138.516 27.7656C138.411 28.625 138.385 29.3672 138.438 29.9922C138.49 30.7083 138.431 31.5547 138.262 32.5312L138.164 33.4883L138.125 33.8984C138.008 34.6016 137.598 34.888 136.895 34.7578C135.775 34.5495 134.935 34.3151 134.375 34.0547C133.672 33.7292 133.197 33.2083 132.949 32.4922L132.734 31.9844L132.52 31.457C132.337 31.0534 132.227 30.7018 132.188 30.4023L132.109 30.207L132.012 30.0312L129.57 26.0078C129.349 25.6302 129.082 25.1354 128.77 24.5234L127.227 21.3594L126.758 20.4023L126.27 19.4258L125.938 18.7812L125.586 18.1562L125.527 18.1172L125.449 18.0781C125.384 18.1042 125.352 18.1562 125.352 18.2344L125.371 18.4102L125.645 20.5195L125.918 22.6094C126.113 23.8594 126.152 24.8424 126.035 25.5586C126.009 25.7669 126.016 26.0339 126.055 26.3594L126.113 27.2773L126.074 28.1953C126.048 28.8984 125.951 29.7839 125.781 30.8516L125.586 32.1797L125.391 33.5078C125.339 33.9115 125.241 34.3932 125.098 34.9531L124.668 36.3594L124.297 37.668C124.206 38.0195 123.984 38.2279 123.633 38.293L123.398 38.332C122.865 38.306 122.376 38.4753 121.934 38.8398C121.673 39.0482 121.4 39.0091 121.113 38.7227C120.983 38.5924 120.807 38.4688 120.586 38.3516L119.961 38.0195C119.635 37.8633 119.414 37.5768 119.297 37.1602L118.828 35.4609L118.359 33.7617L118.047 32.3555C117.956 31.8346 117.91 31.3594 117.91 30.9297C117.923 30.474 117.91 29.9141 117.871 29.25L117.754 27.5898L117.656 25.3047C117.617 24.4323 117.546 23.6771 117.441 23.0391L117.383 22.5312L117.363 22.0039L117.09 19.1328L116.914 17.4336L116.836 15.7148C116.784 12.7461 116.79 10.2396 116.855 8.19531L116.934 6.39844C116.973 5.66927 116.986 5.07031 116.973 4.60156C116.96 4.17188 117.174 3.87891 117.617 3.72266L118.418 3.48828L119.219 3.25391L119.297 3.23438C119.674 3.15625 120.098 3.19531 120.566 3.35156L121.152 3.58594L121.738 3.83984C122.194 4.02214 122.546 4.39974 122.793 4.97266L123.164 5.8125C123.307 6.15104 123.405 6.44401 123.457 6.69141C123.496 6.83464 123.574 6.97135 123.691 7.10156C123.952 7.41406 124.076 7.78516 124.062 8.21484C124.036 8.93099 124.297 9.67318 124.844 10.4414C125.078 10.7539 125.332 11.1901 125.605 11.75L126.953 14.5234L128.242 17.3164L129.043 19.0938C129.329 19.7839 129.564 20.3958 129.746 20.9297C130.111 22.0234 130.625 23.2214 131.289 24.5234L131.66 25.3047L132.031 26.1055L132.109 26.2617C132.161 26.3138 132.24 26.3594 132.344 26.3984ZM152.676 16.5742C152.507 17.1211 152.363 17.7461 152.246 18.4492L152.012 20.3047L151.875 21.7109C151.81 22.2448 151.732 22.7135 151.641 23.1172L151.582 23.5469C151.556 23.7682 151.654 23.8789 151.875 23.8789C152.044 23.8789 152.214 23.8594 152.383 23.8203L154.219 23.4102C154.609 23.319 154.753 23.0651 154.648 22.6484L154.473 22.0234L153.945 20.4414L153.535 19.0938L153.105 17.7266L152.91 17.1602L152.676 16.5742ZM143.574 37.9609L143.594 37.3164C143.581 37.056 143.594 36.763 143.633 36.4375C143.685 36.099 143.711 35.7604 143.711 35.4219C143.672 34.4974 143.776 33.1432 144.023 31.3594L144.258 29.3281L144.492 27.0039L144.727 24.6992L144.844 23.9375L144.961 23.1758L145.195 20.793L145.449 18.3906L145.605 17.1016L145.781 15.793L145.938 14.582L146.113 13.3711C146.243 12.4076 146.315 11.6003 146.328 10.9492L146.387 10.4805L146.465 10.0117L146.758 7.55078C146.797 7.1862 146.953 6.95833 147.227 6.86719C147.604 6.72396 147.923 6.44401 148.184 6.02734L148.301 5.87109L148.418 5.73438C148.561 5.59115 148.691 5.57161 148.809 5.67578C148.939 5.76693 149.134 5.86458 149.395 5.96875L149.707 6.08594L149.98 6.24219C150.228 6.41146 150.527 6.5026 150.879 6.51562C151.738 6.52865 152.376 7.01042 152.793 7.96094C153.327 9.17188 153.913 10.9232 154.551 13.2148L154.941 14.543L155.293 15.8711L155.488 16.4375L155.684 16.9844L156.055 18.1172L156.426 19.2695C156.738 20.207 156.966 20.9753 157.109 21.5742C157.24 22.056 157.435 22.5508 157.695 23.0586L157.969 23.7422L158.203 24.4258L159.18 26.8672L159.297 27.1016L159.355 27.3359C159.382 27.7266 159.486 28.1562 159.668 28.625L159.902 29.2109L160.176 29.8164C160.41 30.3112 160.658 30.8971 160.918 31.5742L161.562 33.3516C161.771 33.9115 162.018 34.5169 162.305 35.168C162.474 35.5586 162.591 35.9753 162.656 36.418C162.682 36.6003 162.682 36.7956 162.656 37.0039C162.591 37.4987 162.305 37.7852 161.797 37.8633C161.576 37.9023 161.406 37.8372 161.289 37.668L160.82 37.0234L160.352 36.3789C159.974 35.8711 159.694 35.4154 159.512 35.0117L158.75 33.4492L158.008 31.8867C157.461 30.6888 157.018 29.6211 156.68 28.6836L156.172 27.2383L155.664 25.793L155.605 25.5977L155.527 25.3828C155.436 25.1484 155.247 25.0508 154.961 25.0898C153.906 25.2331 153.06 25.2656 152.422 25.1875C151.979 25.1224 151.686 25.1484 151.543 25.2656C151.4 25.3828 151.296 25.6628 151.23 26.1055L150.02 33.7227L149.824 34.6602L149.375 36.5742C149.141 37.7461 148.796 38.6706 148.34 39.3477C148.223 39.5299 148.132 39.7839 148.066 40.1094C147.988 40.526 147.721 40.9036 147.266 41.2422C146.81 41.5677 146.367 41.7174 145.938 41.6914L145 41.6523C144.753 41.6654 144.518 41.6003 144.297 41.457L144.023 41.2422L143.75 40.9883C143.49 40.7409 143.372 40.3828 143.398 39.9141L143.574 37.9609Z" fill="white"/>
</svg>
