<svg width="213" height="152" viewBox="0 0 213 152" fill="none" xmlns="http://www.w3.org/2000/svg">
<path fill-rule="evenodd" clip-rule="evenodd" d="M35.845 133.745C36.9373 132.223 38.2482 130.869 39.7358 129.725C39.9728 129.379 40.3393 129.148 40.7059 128.916C41.3054 128.538 41.905 128.159 41.9387 127.277C42.238 127.087 42.5547 126.914 42.8715 126.74C43.583 126.349 44.2944 125.958 44.8087 125.39C44.991 125.189 45.1661 124.981 45.3401 124.775L45.3403 124.775C46.1098 123.864 46.8598 122.977 48.139 122.69C48.6861 121.732 49.5523 121.096 50.4206 120.458C51.3104 119.805 52.2023 119.15 52.7554 118.146C52.9004 117.883 53.253 117.729 53.6 117.578C53.7375 117.518 53.8741 117.458 53.9965 117.393C54.5743 117.082 55.0491 116.635 55.512 116.172C55.0618 116.638 54.5992 117.088 54.0376 117.4C53.9178 117.467 53.7843 117.527 53.6498 117.588C53.3073 117.743 52.9586 117.9 52.8155 118.169C52.2709 119.195 51.3926 119.864 50.5165 120.532C49.6615 121.183 48.8085 121.833 48.2698 122.811C47.0102 123.104 46.2717 124.011 45.5139 124.941L45.5139 124.942C45.3425 125.152 45.1701 125.364 44.9904 125.57C44.485 126.15 43.7842 126.549 43.0834 126.948C42.7713 127.126 42.4592 127.303 42.1644 127.497C42.1342 128.4 41.544 128.787 40.9537 129.174C40.5934 129.41 40.2331 129.646 40 130H41.2531C43.5137 127.789 45.8868 125.704 48.3623 123.753C49.4928 122.853 50.5473 121.851 51.6018 120.849C52.1021 120.374 52.6024 119.898 53.1108 119.434C53.5383 119.043 53.9539 118.631 54.3696 118.218L54.3697 118.218L54.3698 118.218C55.3649 117.231 56.3605 116.243 57.521 115.551C58.1119 115.198 58.561 114.702 58.9984 114.218C59.4806 113.685 59.9487 113.168 60.5773 112.875C61.4681 112.461 62.082 111.784 62.6942 111.11L62.6943 111.109C62.9919 110.782 63.289 110.454 63.6173 110.157C63.7935 109.998 63.8511 109.699 63.9087 109.4C63.9169 109.357 63.9251 109.315 63.9336 109.273C63.9957 109.239 64.056 109.205 64.1138 109.169C64.6171 108.822 65.1075 108.447 65.596 108.074C66.2534 107.572 66.9073 107.073 67.5844 106.646C68.3536 106.162 68.9683 105.552 69.5793 104.947L69.5793 104.947C69.9934 104.536 70.4058 104.128 70.8632 103.761C71.6967 103.092 72.512 102.402 73.3273 101.711C73.6195 101.464 73.9118 101.216 74.2048 100.97L74.2177 100.959L74.232 100.948C74.2541 100.93 74.2772 100.912 74.3006 100.894C74.4161 100.804 74.5375 100.71 74.5694 100.596C74.8447 99.6077 75.5632 98.9843 76.2768 98.3651L76.2768 98.3651L76.2769 98.365L76.2769 98.365L76.2769 98.3649L76.277 98.3649L76.277 98.3648C76.538 98.1384 76.7982 97.9126 77.0359 97.6697C77.8447 96.9234 78.7048 96.2341 79.6099 95.6068C79.7487 95.5159 79.9115 95.4679 80.0777 95.469C82.0742 95.4229 83.3438 94.1207 84.4931 92.7724C84.8496 92.277 85.2852 91.843 85.7827 91.4876C86.1115 91.2801 86.3275 90.9028 86.5459 90.5214C86.6705 90.3038 86.7958 90.0848 86.9434 89.8953C87.2599 89.4864 87.7001 89.3342 88.1768 89.1693C88.2675 89.138 88.3596 89.1061 88.4524 89.0719C89.84 88.5609 91.3141 87.9233 92.2068 86.6998C93.1634 85.3891 94.4486 84.4694 95.7227 83.5576C96.2611 83.1723 96.7975 82.7884 97.3063 82.377C97.8132 81.967 98.3158 81.5482 98.8193 81.1286C100.381 79.827 101.953 78.5177 103.689 77.4392C104.259 76.2346 105.261 75.4598 106.263 74.6843C106.584 74.4363 106.904 74.1883 107.211 73.9262C107.799 73.3205 108.547 72.8913 109.368 72.6875C110.478 72.4902 111.409 71.7382 111.83 70.6973C112.053 70.1404 112.439 69.6629 112.938 69.3268C113.664 68.8433 114.346 68.2943 115.028 67.7454C116.359 66.6739 117.689 65.6024 119.349 65.0183C119.667 64.9384 119.969 64.8105 120.247 64.639C121.385 63.7613 122.517 62.8756 123.649 61.9899C124.98 60.9482 126.312 59.9064 127.653 58.8775C128.362 58.3331 129.093 57.8129 129.823 57.2929C131.152 56.3462 132.48 55.4002 133.678 54.3107C134.625 53.4492 135.684 52.7214 136.743 51.9938C138.509 50.7799 140.274 49.5667 141.517 47.7349C141.639 47.5548 141.839 47.4306 142.041 47.305C142.207 47.2013 142.375 47.0967 142.502 46.959C143.18 46.2281 144.1 45.8126 145.019 45.3971C146.376 44.784 147.733 44.1707 148.313 42.5439C148.362 42.4078 148.576 42.2264 148.698 42.2369C149.977 42.3459 150.792 41.6159 151.601 40.8914C151.918 40.6077 152.234 40.3248 152.576 40.0935C154.564 38.7504 156.5 37.3311 158.437 35.9115L158.437 35.9113C158.729 35.6976 159.02 35.484 159.312 35.2705C161.503 33.6666 163.681 32.047 165.861 30.4273L165.863 30.4256L165.864 30.425L165.866 30.4229L165.868 30.422L165.871 30.4195L165.893 30.4035L165.9 30.398C166.471 29.9737 167.042 29.5494 167.613 29.1253C168.18 28.7042 168.789 28.3349 169.398 27.9656C170.827 27.0992 172.257 26.2325 173.149 24.6946C173.285 24.4812 173.513 24.3424 173.766 24.3189C174.833 24.4315 175.459 23.7756 176.084 23.1215C176.633 22.5454 177.182 21.9707 178.029 21.9237C177.915 21.2876 178.239 21.2318 178.627 21.1648C178.738 21.1457 178.855 21.1256 178.968 21.0908C179.182 21.0248 179.356 20.8152 179.528 20.6074C179.705 20.3937 179.881 20.1818 180.098 20.1304C180.215 20.1025 180.331 20.0854 180.442 20.069C180.893 20.0024 181.262 19.9477 181.322 19.2297C181.344 18.9618 181.93 18.5864 182.299 18.5299C183.284 18.3322 184.197 17.8718 184.939 17.1981C185.842 16.4725 186.825 15.8502 187.868 15.3427C188.242 15.1652 188.527 14.8607 188.813 14.5552C189.272 14.0647 189.733 13.5718 190.569 13.5986C190.637 13.6008 190.689 13.485 190.756 13.3344C190.899 13.0131 191.113 12.5333 191.706 12.7009C192.159 12.8291 192.25 12.5009 192.343 12.1689C192.441 11.8158 192.541 11.4583 193.078 11.6397C193.68 11.843 193.807 11.4009 193.91 11.0429C193.973 10.8227 194.028 10.6343 194.177 10.6476C195.027 10.723 195.527 10.2429 196.037 9.75298C196.43 9.37564 196.83 8.99243 197.399 8.85259C198.172 8.66329 198.832 8.01956 199.387 7.47754C199.608 7.26239 199.812 7.06326 200 6.91496L199.582 3.69252L197.718 4.22967L197.422 3.76298L198.965 2.22897C198.193 1.76711 197.503 2.1512 196.777 2.55587C196.027 2.97319 195.239 3.41241 194.28 2.96836C194.533 2.76774 194.776 2.57773 195.01 2.39405C195.585 1.94415 196.112 1.53223 196.616 1.09553C196.869 0.79725 197.085 0.47039 197.261 0.121711C196.898 0.121711 196.545 0.0868297 196.217 0.0544138L196.217 0.0544115C195.573 -0.00928115 195.025 -0.063451 194.685 0.175208C193.159 1.24529 191.54 2.13594 189.92 3.02709L189.92 3.02724C189.304 3.36611 188.688 3.70505 188.076 4.05396C185.498 5.5252 182.969 7.08313 180.441 8.64056C179.952 8.94227 179.462 9.24396 178.972 9.545L178.88 9.60154C176.376 11.1402 173.871 12.6793 171.414 14.2888C167.041 17.1539 162.696 20.0597 158.349 22.9668L158.348 22.967L158.348 22.9675L157.927 23.2485C156.992 23.874 156.053 24.4943 155.113 25.1145L155.113 25.115L155.112 25.1154L155.111 25.1159L155.111 25.1163L155.11 25.1168L155.108 25.1181C152.44 26.8794 149.773 28.6407 147.195 30.5228C145.788 31.5498 144.35 32.529 142.913 33.5081L142.912 33.5082L142.911 33.5093L142.91 33.5099L142.91 33.5101L142.909 33.5103L142.909 33.5106L142.909 33.5108C142.003 34.1275 141.098 34.7441 140.2 35.3727C138.281 36.7138 136.372 38.0673 134.473 39.4333C131.482 41.5842 128.497 43.7444 125.519 45.9138C125.035 46.266 124.551 46.6172 124.066 46.9684L124.066 46.9685L124.066 46.9686L124.066 46.9687L124.066 46.9688L124.066 46.9689L124.066 46.969C122.241 48.2923 120.415 49.6158 118.632 50.9925C118.041 51.4485 117.41 51.8542 116.778 52.26C115.413 53.137 114.047 54.0145 113.093 55.4002C111.66 55.9619 110.49 56.8941 109.317 57.8289L109.317 57.829L109.317 57.829L109.317 57.8291L109.317 57.8292L109.317 57.8292L109.317 57.8293C108.856 58.1965 108.395 58.564 107.917 58.9097C107 59.5725 106.078 60.2275 105.156 60.8824C102.8 62.5554 100.445 64.2283 98.1828 66.0321C97.564 66.5256 96.9213 66.9893 96.2785 67.4531C95.7638 67.8244 95.249 68.1958 94.7463 68.5826C93.2147 69.7613 91.6887 70.9474 90.1627 72.1337C89.0212 73.021 87.8796 73.9084 86.7357 74.7926C86.0703 75.3044 85.394 75.8006 84.7068 76.2814C84.5315 76.4042 84.3392 76.5097 84.1475 76.6149L84.1475 76.615C83.8211 76.7941 83.4966 76.9723 83.2611 77.2326C82.6633 77.8938 81.9265 78.3928 81.1904 78.8913C80.2202 79.5483 79.2514 80.2045 78.6036 81.2301C76.0351 82.6421 73.7904 84.4857 71.5443 86.3306L71.5441 86.3307L71.544 86.3307L71.544 86.3308L71.5439 86.3308L71.5438 86.3309L71.5438 86.3309L71.5437 86.331C69.9599 87.6319 68.3753 88.9334 66.676 90.0845C65.3987 90.9495 64.2325 91.9745 63.0654 93.0003L63.0653 93.0004C62.0467 93.8957 61.0275 94.7915 59.9332 95.582C59.355 95.9996 58.841 96.4887 58.3318 96.9732C57.7202 97.5552 57.1155 98.1305 56.4149 98.5674C54.768 99.5943 53.3153 100.848 51.8633 102.101C50.9475 102.891 50.0321 103.681 49.0684 104.414C47.806 105.372 46.6289 106.441 45.4514 107.51L45.4511 107.511C44.8422 108.064 44.2332 108.617 43.6121 109.155C43.5585 109.201 43.4433 109.178 43.27 109.142C43.1681 109.122 43.0462 109.097 42.9048 109.08C42.9054 108.609 42.975 108.141 43.1116 107.69C43.4477 107.119 43.8124 106.565 44.2045 106.03C44.5353 105.48 44.9447 104.971 45.3543 104.461C46.2985 103.287 47.244 102.112 47.2305 100.417C47.2295 100.307 47.3638 100.202 47.5058 100.09C47.601 100.016 47.6997 99.9387 47.7634 99.8553C48.0144 99.5266 48.2446 99.1802 48.4749 98.8338C49.0933 97.9036 49.712 96.973 50.7313 96.3823C50.7614 95.9141 51.0692 95.5597 51.3782 95.2039C51.801 94.7169 52.2261 94.2274 51.9445 93.44C51.8863 93.2738 52.0831 92.9659 52.2361 92.7876C53.6062 91.135 54.6253 89.2232 55.2319 87.1678C55.3292 86.8624 55.4465 86.5575 55.5641 86.2521C55.8986 85.3828 56.2349 84.5089 56.1159 83.6048C55.8986 81.9547 53.1357 77.9459 51.6446 77.6632C50.8227 77.5076 50.3169 77.0706 49.8198 76.6411C49.5263 76.3876 49.2359 76.1367 48.8852 75.9478C48.5525 75.9617 48.2169 75.955 47.8812 75.9483C46.8504 75.9278 45.8191 75.9072 44.869 76.4827C44.3147 76.8192 43.7588 77.153 43.2029 77.4868L43.2024 77.487C41.8492 78.2996 40.4961 79.112 39.1675 79.9622C36.2188 81.849 33.3073 83.7827 30.4539 85.8234C29.8372 86.264 29.2169 86.703 28.5959 87.1425C26.9719 88.2918 25.3437 89.4441 23.7653 90.6347C21.34 92.4631 18.9115 94.2994 16.5312 96.1875C13.0518 98.948 9.65719 101.819 6.32644 104.756C4.75262 106.143 3.29109 107.658 1.83097 109.171L1.83093 109.171L1.83086 109.172C1.45537 109.561 1.07997 109.95 0.702771 110.337C0.38848 110.716 0.155098 111.155 0.0168607 111.626C-0.0326231 111.763 0.0370347 111.942 0.0941857 112.088C0.116809 112.147 0.137472 112.2 0.14801 112.243L1.43327 111.772L1.63961 112.12L0.331619 113.023C0.505701 113.154 0.682915 113.303 0.845086 113.439L0.845623 113.439L0.845828 113.44C1.15655 113.701 1.41191 113.916 1.48398 113.866C2.12214 113.428 2.49648 113.688 2.93066 113.988C3.05595 114.075 3.18622 114.165 3.32925 114.243C4.17035 114.7 5.23222 115.066 6.19748 114.327C7.80653 113.094 9.40816 111.852 11.0023 110.601C11.415 110.277 11.8155 109.932 12.2158 109.588L12.2159 109.588L12.2159 109.588C13.0451 108.875 13.8736 108.162 14.8079 107.635C15.3626 107.321 15.8575 106.922 16.3507 106.525C17.0785 105.939 17.8028 105.356 18.7109 105.051C19.1517 104.925 19.5143 104.613 19.7019 104.196C20.146 103.416 21.0955 102.863 21.9371 102.373L21.997 102.338C22.36 102.127 22.6823 101.853 23.0043 101.579C23.5614 101.105 24.1177 100.633 24.8823 100.484C24.9575 99.5552 25.458 99.1559 26.4001 99.1359C26.7271 99.1289 26.9124 98.8611 27.1035 98.585C27.3672 98.2039 27.6419 97.807 28.3149 98.0577C28.727 98.0835 29.1228 97.8932 29.3584 97.5558C29.5721 96.799 30.0473 96.6701 30.6232 96.514L30.6233 96.5139L30.6233 96.5139C30.7448 96.481 30.8707 96.4469 30.9995 96.4054C31.7484 96.1662 32.3684 95.636 32.7185 94.9353C33.3129 95.0994 33.6599 94.7168 34.0068 94.3342C34.3659 93.9381 34.725 93.5421 35.3585 93.7523C35.4321 92.9516 35.9133 92.8848 36.528 92.7996L36.5282 92.7995C36.6073 92.7885 36.6885 92.7773 36.7714 92.7641C37.1485 92.704 37.4827 92.3809 37.8473 92.0284C38.0186 91.8627 38.1966 91.6906 38.3889 91.5363C38.422 91.6913 38.4563 91.8116 38.483 91.905C38.5247 92.0511 38.5476 92.1313 38.5174 92.1756C37.3436 93.891 36.1694 95.6047 34.9659 97.3009C34.0179 98.6362 33.0853 99.9825 32.1528 101.329L32.1525 101.329L32.1522 101.33L32.1518 101.33L32.1515 101.331L32.1512 101.331L32.1508 101.332C31.1428 102.787 30.1349 104.242 29.1079 105.683C26.9375 108.714 24.8974 111.829 22.9876 115.027C22.6511 115.59 22.3137 116.152 21.9762 116.714C20.4555 119.248 18.935 121.781 17.5065 124.365C17.0281 125.231 16.6573 126.154 16.2862 127.078L16.2861 127.078C15.9898 127.816 15.6933 128.555 15.3416 129.265C14.5425 130.883 14.0664 132.516 14.3799 134.284C14.5075 134.415 14.6386 134.541 14.7682 134.665L14.7687 134.666C15.4624 135.33 16.1126 135.953 15.9502 137.149C15.8549 137.851 17.1637 138.786 18.021 138.651C18.7788 138.532 19.375 138.905 19.9663 139.274C20.6057 139.673 21.2394 140.069 22.0652 139.835C22.1193 139.981 22.1828 140.123 22.2554 140.26C22.5894 140.68 22.9324 141.093 23.2814 141.514L23.2816 141.514C23.4149 141.675 23.5491 141.836 23.684 142L25.7409 140.841C26.7921 141.654 27.4062 141.076 28.0274 140.491C28.2378 140.293 28.4489 140.095 28.6782 139.949C29.4157 139.479 30.0511 138.878 30.6803 138.283L30.6804 138.283C31.3032 137.694 31.9201 137.11 32.624 136.666C33.8774 135.908 34.9713 134.917 35.845 133.745ZM212.697 30L209.775 30.6418C209.325 31.0181 208.746 31.2043 208.183 31.385C207.533 31.5938 206.907 31.7951 206.53 32.2742C206.066 32.8622 205.5 33.0998 204.94 33.3345C204.635 33.4626 204.331 33.5898 204.048 33.7727C203.44 34.1647 202.808 34.5222 202.176 34.8796C201.9 35.0358 201.623 35.192 201.349 35.3511C201.213 35.5135 201.086 35.705 200.959 35.8965L200.959 35.8967C200.68 36.3171 200.401 36.7375 200.028 36.8492C199.079 37.1339 198.309 37.6781 197.543 38.2203C197.179 38.4781 196.815 38.7354 196.433 38.9641C195.82 39.3306 195.181 39.6506 194.542 39.9705L194.541 39.9706L194.541 39.9708C193.348 40.5678 192.154 41.1651 191.132 42.0657L191.017 42.1671C190.309 42.792 189.503 43.5027 188.658 43.6398C188.094 43.7314 187.701 44.0545 187.319 44.3698C186.943 44.6795 186.576 44.9816 186.064 45.0494C185.615 45.167 185.176 45.3169 184.749 45.4978C184.923 45.2755 185.043 45.1082 185.134 44.9809L185.135 44.9805C185.274 44.7861 185.346 44.685 185.444 44.6234C186.032 44.2532 186.617 43.8776 187.203 43.5019C189.037 42.3251 190.871 41.148 192.794 40.1377C193.12 39.9673 193.226 39.7202 193.316 39.5113C193.393 39.3343 193.457 39.1847 193.633 39.1325C193.693 39.1146 193.752 39.0978 193.809 39.0814C194.375 38.9202 194.81 38.7962 194.376 38.1397C192.554 38.6462 191.061 39.7105 189.569 40.7741C188.201 41.749 186.834 42.7234 185.215 43.2673C184.754 43.9801 184.037 44.3035 183.318 44.628C182.895 44.8187 182.472 45.0097 182.099 45.2803C180.343 46.5544 178.535 47.7517 176.726 48.9498L176.726 48.9499L176.725 48.9501L176.725 48.9503L176.725 48.9504L176.725 48.9504L176.725 48.9505L176.725 48.9506L176.725 48.9506C174.946 50.1281 173.167 51.3063 171.436 52.5586C170.972 52.8942 170.507 53.2286 170.043 53.5629L170.042 53.5631C166.762 55.9246 163.488 58.2807 160.495 61.0073C160.27 61.2118 160.014 61.3811 159.757 61.5505C159.526 61.703 159.295 61.8556 159.086 62.0341L159.076 62.0432C157.525 63.3726 155.971 64.7048 155.022 66.5605C154.968 66.6648 155.022 66.8231 155.096 67.0426L155.096 67.043L155.096 67.0435L155.097 67.044L155.097 67.0449C155.139 67.1682 155.187 67.3107 155.226 67.4737L156.907 66.273L157.631 66.9929C157.424 67.2365 157.149 67.4384 156.871 67.6434C156.149 68.1744 155.398 68.7264 155.708 70.0785C155.953 69.9859 156.19 69.8445 156.419 69.7068C157.006 69.3557 157.551 69.0292 158.109 69.6003C158.664 70.1686 159.326 70.3686 159.993 70.5702C160.384 70.6882 160.777 70.8068 161.151 71C161.478 69.4846 162.133 68.7427 163.193 67.715C165.015 65.9489 166.988 64.3708 168.963 62.7919C169.445 62.4068 169.927 62.0216 170.407 61.6336C171.078 61.0899 171.744 60.5412 172.411 59.9925C173.702 58.9298 174.992 57.8675 176.313 56.8427C176.844 56.4306 177.432 56.0912 178.02 55.7515C178.358 55.5568 178.695 55.3621 179.022 55.1534C179.099 55.1046 179.136 54.9943 179.177 54.8723C179.197 54.8118 179.218 54.7484 179.246 54.6881L178.797 53.7287C178.892 53.7176 178.977 53.7002 179.053 53.6847C179.2 53.6547 179.315 53.6314 179.401 53.6717C179.624 53.8078 179.831 53.968 180.018 54.1495C180.205 53.9948 180.38 53.8275 180.544 53.6488C181.132 53.1625 181.753 52.7173 182.403 52.3164C182.59 52.1998 182.806 52.1041 183.023 52.0079C183.774 51.6748 184.537 51.3367 184.117 50.1092C184.23 50.0788 184.297 49.986 184.366 49.8903C184.493 49.7141 184.627 49.5281 185.07 49.7043C186.07 50.1023 187.716 49.1989 187.449 48.6054C187.205 48.061 187.384 47.7681 187.58 47.4481C187.744 47.1809 187.92 46.8948 187.87 46.4275L189.514 47.8717C189.565 47.7743 189.61 47.6651 189.656 47.5542C189.761 47.2984 189.87 47.0334 190.068 46.8829C190.481 46.6271 190.936 46.444 191.412 46.3416C191.518 46.3094 191.629 46.3092 191.739 46.309C192.001 46.3085 192.257 46.3081 192.441 45.8712C192.679 45.3019 194.437 44.4348 194.913 44.2229C195.382 44.0468 195.797 43.7549 196.121 43.3748C196.312 43.1049 196.449 42.7832 196.585 42.4651L196.585 42.465C196.777 42.0119 196.967 41.5664 197.306 41.2892C197.729 40.9426 198.296 40.7733 198.866 40.6028C199.173 40.5113 199.48 40.4194 199.767 40.2995C199.901 40.2436 200.006 40.1221 200.111 39.9988L200.112 39.9986C200.183 39.9154 200.255 39.8313 200.338 39.7661C200.427 39.6953 200.644 39.6383 200.694 39.6866C201.454 40.4142 201.942 39.9867 202.424 39.5652C202.628 39.3871 202.831 39.21 203.052 39.1217C203.538 38.8784 204 38.5876 204.428 38.2537C204.319 38.0405 204.21 37.8274 204.077 37.5702L203.791 37.0128C204.284 37.049 204.717 36.8902 205.128 36.7391C205.778 36.5009 206.375 36.2817 207.073 36.876L207.142 36.2082L207.156 36.0676L207.162 36.0168L207.166 35.9702L207.236 35.2928C208.822 35.5229 210.269 35.3101 211.356 34.0092L210.339 33.5194C210.695 33.433 211.063 33.483 211.405 33.5293C211.758 33.5772 212.082 33.6212 212.333 33.5064C213.26 33.0836 213.017 32.1624 212.803 31.3543L212.779 31.262L211.853 30.9547L212.697 30ZM99.9722 101.408C100.229 101.236 100.525 101.079 100.82 100.923L100.82 100.923C101.481 100.573 102.141 100.223 102.376 99.6897C102.737 98.8667 103.34 98.4889 103.946 98.1085L103.947 98.1083C104.142 97.9861 104.337 97.8637 104.525 97.7261C104.982 97.3915 105.47 97.1 105.959 96.8083C106.328 96.5883 106.696 96.3682 107.052 96.1296C107.92 95.608 108.738 95.0086 109.495 94.3391C111.041 92.8768 112.735 91.574 114.549 90.451C114.763 90.3127 115 90.2104 115.238 90.108C115.455 90.0142 115.673 89.9203 115.874 89.7985C115.91 89.7766 115.947 89.7548 115.984 89.733L116.043 89.6994L116.13 89.6495C116.494 89.4429 116.881 89.2236 117.023 88.9098C117.741 87.3228 119.134 86.5531 120.517 85.789L120.517 85.7889C120.818 85.6223 121.119 85.4559 121.413 85.2814C122.358 84.7207 122.984 85.0082 124 86.0518C123.83 86.6715 123.363 87.075 122.891 87.4821C122.385 87.9197 121.873 88.3616 121.72 89.0812C121.689 89.2292 121.271 89.2983 120.857 89.3668C120.67 89.3975 120.485 89.4282 120.336 89.4657C120.005 89.5493 119.925 89.8657 119.846 90.1752C119.75 90.5558 119.656 90.926 119.102 90.8404C118.455 90.7401 118.293 91.0701 118.122 91.42C118.059 91.5482 117.995 91.6792 117.905 91.7926C117.834 91.8802 117.538 91.7947 117.206 91.6988L117.206 91.6987L117.205 91.6986L117.205 91.6985C117.043 91.6518 116.873 91.6025 116.716 91.5699L115.729 93.5009H114.839C114.644 93.7332 114.464 94 114.289 94.2594C113.91 94.8213 113.553 95.3489 113.121 95.4188C112.704 95.4864 112.517 95.8194 112.338 96.1359C112.112 96.538 111.9 96.9136 111.253 96.6842C111.109 96.6333 110.794 96.8443 110.662 97.0127C110.562 97.1401 110.485 97.3142 110.409 97.4825C110.295 97.7388 110.186 97.9815 110.017 98.0241C109.444 98.1684 109.06 98.5677 108.687 98.956C108.345 99.3121 108.012 99.6589 107.55 99.7911C106.478 100.098 105.614 100.724 104.753 101.349C104.139 101.794 103.527 102.238 102.841 102.566C102.467 102.779 102.21 103.146 102.142 103.567C102.098 104.657 101.517 104.88 100.55 105.186C99.815 105.42 99.112 106.349 98.7954 107.128C98.5889 107.636 98.1618 107.66 97.7453 107.683C97.309 107.707 96.8844 107.731 96.7377 108.31C96.5945 108.876 96.2739 109.748 95.4084 108.816C95.329 108.894 95.2272 108.974 95.1254 109.053C94.9049 109.225 94.6843 109.397 94.691 109.56C94.7261 110.399 94.2735 110.389 93.8191 110.378C93.5888 110.373 93.358 110.368 93.19 110.473C93.0287 110.615 93.1488 110.744 93.2809 110.885C93.4652 111.083 93.6729 111.305 93.1724 111.625C92.5448 112.025 91.981 112.525 91.4175 113.025L91.4174 113.025C90.8192 113.555 90.2214 114.085 89.548 114.496C89.1302 114.681 88.8067 115.027 88.6518 115.453C88.5474 115.742 88.1025 116.18 87.9198 116.133C86.6614 115.813 85.9677 116.512 85.2675 117.216C85.1116 117.373 84.9555 117.53 84.7927 117.677C84.569 117.545 84.3591 117.392 84.166 117.22C84.0278 117.412 83.9971 117.682 83.9661 117.955C83.905 118.491 83.8426 119.039 82.9579 119.03C82.7716 119.03 82.5174 119.345 82.4016 119.568L82.3193 119.723C81.2792 121.689 81.2529 121.739 79.3996 123.033C79.2936 123.107 79.2375 123.296 79.1803 123.489C79.0524 123.92 78.9196 124.367 78.2131 123.577C78.2007 123.563 77.618 123.874 77.5767 124.087C77.3291 125.359 76.4389 126.093 75.5493 126.826L75.5492 126.826L75.5492 126.826L75.5491 126.826L75.549 126.826L75.549 126.826C75.182 127.129 74.8151 127.431 74.4936 127.771C73.5241 127.63 73.0272 128.204 72.5303 128.778C72.2911 129.055 72.0518 129.331 71.7599 129.528C71.6503 129.601 71.5383 129.666 71.4286 129.73C70.9478 130.008 70.5115 130.261 70.5205 131.125C70.5275 131.867 69.5348 132.209 68.5544 131.867L69.737 130.014C69.5843 130.026 69.4638 130.028 69.3698 130.029C69.2197 130.03 69.1368 130.031 69.097 130.072C68.7513 130.427 68.3483 130.643 68.021 130.169C67.9528 129.859 68.053 129.537 68.2853 129.318C69.395 128.719 69.9805 127.719 70.5675 126.718C70.6711 126.541 70.7747 126.364 70.8812 126.189C71.4449 126.232 71.709 126.252 71.8902 126.385C72.05 126.502 72.1454 126.707 72.3249 127.093C72.3453 127.105 72.3712 127.121 72.3971 127.138L72.3984 127.138C72.4522 127.172 72.5052 127.205 72.5064 127.204C72.6794 126.952 72.9761 126.819 73.2799 126.683C73.8424 126.431 74.4294 126.169 74.3007 125.116C73.937 125.279 73.68 125.526 73.3667 125.827C73.1774 126.009 72.9675 126.211 72.7011 126.426C72.7603 126.202 72.7989 126.006 72.8327 125.834C72.8959 125.514 72.9419 125.28 73.0737 125.112C73.4093 124.718 73.7999 124.374 74.2338 124.088C75.038 123.551 75.6271 122.753 75.8995 121.832C76.0937 121.087 76.2787 120.62 77.0675 120.353C77.3488 120.258 77.5661 119.978 77.7833 119.698C77.8815 119.572 77.9796 119.445 78.0836 119.336C78.7452 119.478 79.1422 119.092 79.5395 118.706C79.8796 118.376 80.2198 118.045 80.7262 118.045C80.6786 116.944 81.534 116.625 82.2634 116.353C82.4583 116.28 82.6442 116.211 82.8015 116.131C83.3018 115.876 83.599 115.475 83.895 115.076C84.2012 114.663 84.506 114.253 85.0327 114.007C86.0901 113.513 87.0165 112.712 87.9217 111.929C88.0398 111.827 88.1576 111.725 88.2752 111.624C89.4349 110.631 90.5708 109.61 91.7067 108.589C92.431 107.939 93.1553 107.288 93.8859 106.644C94.0079 106.537 94.1613 106.464 94.3148 106.392C94.4632 106.321 94.6118 106.251 94.7324 106.149C95.0207 105.906 95.2975 105.649 95.5742 105.392L95.5742 105.392L95.5743 105.392L95.5743 105.392L95.5744 105.392L95.5744 105.392C95.9317 105.061 96.2888 104.729 96.6703 104.427C96.901 104.245 97.1258 104.029 97.3443 103.819C97.642 103.533 97.928 103.258 98.2012 103.095C98.9393 102.707 99.5528 102.123 99.9722 101.408ZM64.5653 133.424C64.1915 133.827 63.8188 134.228 63.1041 134.061C62.5633 134.614 62.0205 135.165 61.4777 135.717L61.4764 135.718L61.4735 135.721C60.1824 137.033 58.8912 138.344 57.6264 139.681C57.2096 140.121 56.8255 140.602 56.4423 141.081C55.744 141.955 55.0484 142.825 54.1624 143.442C53.6999 143.764 53.3596 144.214 53.0216 144.661C52.4723 145.387 51.9294 146.105 50.8789 146.252C50.8679 146.189 50.8532 146.125 50.8344 146.058C50.8229 146.018 50.9445 145.895 51.0149 145.885C52.0629 145.74 52.6046 145.029 53.1525 144.31C53.4896 143.867 53.8291 143.421 54.2903 143.103C55.1741 142.492 55.8678 141.63 56.5644 140.765C56.9466 140.29 57.3296 139.814 57.7454 139.378C58.9726 138.092 60.2249 136.829 61.4778 135.565L61.478 135.565L61.4784 135.565L61.4816 135.561C62.0577 134.98 62.6339 134.399 63.2079 133.815C63.4426 133.229 63.9171 132.803 64.4128 132.358C65.0839 131.755 65.7937 131.118 66 130C65.6838 130.245 65.398 130.463 65.1339 130.664C64.6222 131.054 64.1919 131.382 63.7791 131.728C63.1861 132.226 62.6189 132.752 62.0723 133.295C61.8534 133.513 61.6496 133.745 61.4459 133.977C61.1812 134.278 60.9166 134.58 60.6194 134.848C60.3573 135.085 60.0669 135.292 59.7769 135.5L59.7767 135.5C59.4407 135.74 59.1053 135.98 58.8151 136.265C58.6076 136.468 58.4283 136.758 58.2552 137.037C57.9909 137.465 57.7408 137.869 57.4264 137.906C56.7208 137.991 56.5862 138.405 56.4496 138.825C56.3608 139.098 56.2712 139.374 56.0234 139.564C53.8151 141.257 52.0684 143.369 50.3198 145.483L50.3197 145.484C49.2614 146.763 48.2024 148.044 47.0399 149.233C46.9671 149.308 47.0076 149.487 47.0534 149.688C47.0764 149.79 47.1007 149.897 47.1125 150L49.1682 148.448C49.3605 148.241 49.6127 148.073 49.865 147.905C50.2109 147.675 50.557 147.445 50.7497 147.113C50.654 147.669 50.1896 147.98 49.7257 148.291C49.4726 148.461 49.2196 148.63 49.0269 148.839C49.1862 149.443 48.848 149.796 48.4936 150.167C48.4245 150.239 48.3548 150.312 48.2881 150.388C48.1289 150.656 48.0307 150.954 48 151.263C48.2069 151.246 48.4153 151.207 48.6092 151.172C48.9886 151.102 49.3124 151.042 49.4602 151.172C50.618 152.197 51.2393 152.338 51.6337 151.211C51.8198 150.68 52.1802 150.337 52.5292 150.004C52.8294 149.718 53.1212 149.439 53.2865 149.057L52.8188 148.484C53.0084 148.438 53.2221 148.41 53.4281 148.383H53.4282C53.8488 148.327 54.237 148.276 54.3219 148.092C54.8639 146.918 55.7931 146.099 56.7201 145.282L56.7202 145.282C57.1629 144.891 57.6051 144.502 58.0043 144.074C58.8949 143.119 59.8429 142.216 60.7889 141.314L60.7891 141.314L60.7892 141.314L60.7893 141.313L60.7894 141.313C61.2021 140.92 61.6144 140.527 62.0213 140.13L61.3687 139.494C63.2894 139.43 64.2806 138.462 64.3476 136.613L65.5313 137.671C64.9144 136.214 65.5512 135.597 66.2441 134.925C66.5104 134.667 66.7851 134.4 67 134.075L65.2356 133.066L66.9625 132.138C66.1014 131.779 65.761 132.189 65.4389 132.577C65.3194 132.721 65.2024 132.861 65.0623 132.959C64.8795 133.086 64.7223 133.255 64.5653 133.424ZM100 101C99.5781 101.715 98.9619 102.299 98.2208 102.687C97.9451 102.851 97.6575 103.127 97.3582 103.414L97.358 103.414L97.358 103.414L97.3579 103.414C97.1388 103.625 96.9135 103.841 96.682 104.023C96.2991 104.326 95.9403 104.658 95.5813 104.99L95.5812 104.99L95.5812 104.99L95.5812 104.99C95.3027 105.247 95.0242 105.505 94.7342 105.749C94.613 105.852 94.4637 105.922 94.3146 105.992L94.3145 105.992C94.1602 106.065 94.006 106.138 93.8833 106.246C93.1459 106.894 92.4147 107.549 91.6835 108.204C90.5449 109.225 89.4063 110.245 88.2439 111.238C88.1261 111.339 88.0081 111.441 87.8898 111.543L87.8886 111.544C86.9788 112.329 86.0476 113.132 84.9848 113.627C84.4553 113.873 84.149 114.285 83.8412 114.699C83.5437 115.099 83.2449 115.501 82.7421 115.757C82.5835 115.838 82.3961 115.908 82.1995 115.981C81.4667 116.255 80.6083 116.575 80.6562 117.676C80.1481 117.676 79.8067 118.007 79.4652 118.338C79.0657 118.725 78.6661 119.112 78 118.97C78 117.406 79.3281 116.583 80.3255 116.024C81.2105 115.527 81.9237 114.86 82.6371 114.192L82.6371 114.192C83.2854 113.586 83.9337 112.979 84.7112 112.5C85.911 111.761 86.9507 110.776 87.993 109.788C88.6016 109.211 89.2112 108.634 89.854 108.104C92.6951 105.762 95.574 103.465 98.4904 101.213C98.7269 101.032 99.1045 101.028 99.4824 101.024C99.6597 101.022 99.8371 101.02 100 101ZM209.184 30.4389C209.749 30.2554 210.333 30.0663 210.785 29.6838L212 28C211.384 28.0954 210.778 28.2462 210.189 28.4507C209.741 28.6601 209.319 28.9225 208.896 29.1851C208.623 29.3549 208.349 29.5249 208.069 29.6808C206.925 30.3156 205.779 30.9466 204.633 31.5776C202.568 32.7143 200.504 33.851 198.452 35.0102C197.662 35.4719 196.921 36.0135 196.24 36.6265C196.115 36.7378 196.097 36.9743 196.072 37.318C196.057 37.5122 196.04 37.7406 196 38C196.784 37.461 197.598 36.968 198.438 36.5235C198.961 36.2904 199.434 35.9629 199.906 35.6359C200.646 35.1231 201.384 34.6114 202.316 34.4657C202.589 34.3053 202.865 34.1475 203.14 33.9897C203.777 33.625 204.414 33.2604 205.028 32.8626C205.313 32.6777 205.617 32.5488 205.923 32.419C206.486 32.1803 207.056 31.9385 207.523 31.3405C207.901 30.8549 208.531 30.6507 209.184 30.4389Z" fill="#8CD4E5"/>
</svg>
