<svg width="305" height="164" viewBox="0 0 305 164" fill="none" xmlns="http://www.w3.org/2000/svg">
<path fill-rule="evenodd" clip-rule="evenodd" d="M197.525 108.907C197.343 109.02 197.165 109.152 196.987 109.285C196.609 109.565 196.232 109.845 195.812 109.946C192.831 110.663 189.856 111.404 186.88 112.145C179.249 114.046 171.618 115.946 163.905 117.432C152.906 119.551 141.83 121.277 130.756 123.002L130.755 123.002L130.753 123.002L130.751 123.002L130.749 123.003L130.747 123.003L130.745 123.003L130.743 123.004L130.74 123.004L130.738 123.004L130.738 123.004C128.071 123.42 125.404 123.835 122.738 124.256C120.707 124.577 118.65 124.725 116.592 124.873L116.591 124.873C115.121 124.979 113.65 125.085 112.188 125.254C111.119 125.378 110.059 125.589 108.999 125.799C107.864 126.025 106.73 126.251 105.583 126.37C99.805 126.968 94.0158 127.47 88.2245 127.925C87.6969 127.967 87.1593 127.86 86.6203 127.753C86.129 127.655 85.6366 127.557 85.1497 127.571C84.8367 127.58 84.5286 127.758 84.2204 127.936C83.9127 128.114 83.6049 128.292 83.2921 128.302C82.463 128.327 81.6338 128.354 80.8046 128.38H80.8043H80.804H80.8037H80.8034H80.8031H80.8028H80.8025H80.8022H80.8019C76.1958 128.528 71.588 128.676 66.9826 128.626C65.8383 128.614 64.6933 128.605 63.548 128.595C57.2961 128.545 51.0348 128.494 44.8239 127.945C33.6141 126.954 22.4923 125.187 12.9348 118.54C6.67468 114.186 1.2385 109.196 0.188503 100.936C-0.570466 94.9648 1.00453 89.6258 4.15451 84.7518C5.62454 82.4768 7.29211 80.3304 8.96043 78.1831L8.96049 78.183L8.96055 78.1829C9.99119 76.8564 11.0221 75.5294 12.0069 74.1716C12.3874 73.6469 12.653 73.0411 12.919 72.4341C13.152 71.9024 13.3855 71.3698 13.6969 70.8901C13.8654 70.6309 14.0325 70.3687 14.2001 70.1058C15.0611 68.7549 15.9342 67.3849 17.0649 66.3008C24.6781 59.002 33.1506 52.7755 42.057 47.1748C48.6502 43.0293 55.3389 38.9911 62.2289 35.3676C84.2549 23.7826 107.139 14.3136 131.378 8.34297C147.576 4.353 163.961 1.3235 180.61 0.318378C187.913 -0.12263 195.251 -0.0113826 202.587 0.0998406C205.346 0.141672 208.105 0.1835 210.862 0.195943C216.178 0.219816 221.493 0.2946 226.807 0.369383L226.808 0.369384C229.66 0.40952 232.512 0.449656 235.365 0.48192C250.34 0.651207 265.128 2.25524 279.497 6.63904C286.684 8.83094 293.41 11.9718 298.775 17.5017C304.944 23.8595 306.913 35.1638 302.93 43.0973C299.736 49.4834 294.968 54.9517 289.074 58.987C288.284 59.5346 287.486 60.0737 286.688 60.613L286.687 60.6133L286.687 60.6135C284.329 62.2067 281.97 63.8009 279.797 65.617C278.513 66.6899 277.381 67.9406 276.248 69.1918C275.192 70.358 274.135 71.5248 272.956 72.5485C270.919 74.3154 268.798 75.9851 266.677 77.6551L266.677 77.6555C264.818 79.1188 262.959 80.5822 261.157 82.1113C260.436 82.7228 259.885 83.5276 259.332 84.3362C258.937 84.9139 258.541 85.4935 258.08 86.0058C257.265 86.9118 256.468 87.8433 255.672 88.7754L255.671 88.7759L255.671 88.7765L255.67 88.777L255.67 88.7775L255.669 88.778L255.669 88.7786L255.668 88.7791L255.668 88.7796L255.667 88.7806C253.529 91.282 251.387 93.7874 248.866 95.8183C244.239 99.5469 239.264 102.855 234.299 106.157C233.57 106.642 232.841 107.127 232.113 107.613C230.022 109.009 227.821 110.24 225.62 111.471L225.619 111.472L225.618 111.473L225.617 111.473L225.616 111.474L225.615 111.474C224.624 112.029 223.632 112.584 222.65 113.154C220.355 113.286 218.401 114.084 217.037 116.033C216.068 116.471 215.098 116.911 214.129 117.35L214.127 117.351L214.125 117.352L214.122 117.353L214.12 117.354L214.118 117.355L214.116 117.356L214.114 117.357L214.112 117.358C211.403 118.585 208.695 119.812 205.98 121.024C205.418 121.274 204.835 121.475 204.256 121.675C204.015 121.758 203.775 121.841 203.537 121.927C200.573 123.106 197.603 124.288 194.627 125.474C194.316 125.683 194.013 125.914 193.71 126.145L193.709 126.145C193.057 126.642 192.405 127.139 191.67 127.419C170.039 135.683 147.889 142.521 125.363 147.889C121.758 148.745 118.157 149.619 114.555 150.493C103.963 153.064 93.3688 155.636 82.6857 157.749C73.455 159.576 64.1233 160.897 54.7931 162.218L54.7924 162.218L54.7911 162.218L54.7901 162.218L54.7891 162.218L54.7881 162.218L54.7871 162.218L54.7861 162.219L54.7851 162.219L54.7841 162.219L54.7831 162.219C51.4228 162.695 48.0627 163.17 44.7076 163.67C43.4653 163.854 42.1997 163.873 40.9327 163.892H40.9324H40.932C40.1333 163.904 39.3341 163.916 38.5399 163.969C36.2829 164.169 34.0491 163.388 32.4097 161.825C32.2 161.642 31.9667 161.488 31.7162 161.367C31.2483 161.126 30.7751 160.896 30.3017 160.666L30.3013 160.666L30.3008 160.666C30.1176 160.577 29.9345 160.488 29.7516 160.398L31.5411 159.088C31.406 158.95 31.2565 158.828 31.0953 158.723C30.6361 158.49 30.1712 158.268 29.7062 158.047L29.7031 158.046L29.5305 157.964L29.3642 157.884L29.1824 157.797C29.4136 157.658 29.6425 157.484 29.8714 157.31C30.3619 156.937 30.8524 156.565 31.3659 156.53C54.4662 154.956 76.7785 149.315 99.0742 143.678C101.275 143.122 103.476 142.565 105.678 142.013C134.338 134.82 162.616 126.332 190.179 115.61C196.527 113.141 202.801 110.467 209.011 107.671C213.563 105.603 217.966 103.223 222.189 100.549C221.486 100.786 220.784 101.027 220.083 101.268L220.083 101.269C218.557 101.793 217.031 102.317 215.493 102.803C213.472 103.441 211.448 104.067 209.424 104.694L209.424 104.694L209.423 104.694L209.423 104.694L209.423 104.694L209.423 104.694L209.423 104.694L209.423 104.694L209.422 104.694L209.422 104.694C206.707 105.534 203.993 106.374 201.287 107.241C200.852 107.381 200.468 107.678 200.084 107.975C199.907 108.112 199.73 108.249 199.548 108.37L197.525 108.907ZM59.4052 52.5058C58.6268 52.8555 57.8396 53.189 57.0524 53.5226L57.0523 53.5227C55.3428 54.2471 53.6333 54.9715 52.014 55.8609C41.2133 61.7473 31.275 69.0963 22.48 77.7004C20.47 79.6764 18.7741 81.9701 17.0771 84.2654L17.077 84.2655L17.077 84.2656C16.1968 85.456 15.3163 86.6469 14.3916 87.7941C11.1371 91.7381 9.24866 96.6324 9.0097 101.742C8.9353 103.258 9.2844 105.206 10.2173 106.276C12.3502 108.723 15.2883 110.131 18.7362 111C16.3854 106.704 15.3931 102.429 17.8523 98.276C19.5735 95.3551 21.6736 92.6752 24.0979 90.3063C31.4361 83.2086 40.2545 78.2199 49.2287 73.5428C63.3078 66.2054 78.0848 60.5658 93.2082 55.8067C112.806 49.6375 132.787 45.2407 153.227 43.066C160.304 42.3129 167.403 41.7374 174.506 41.2646C188.916 40.3138 203.387 40.9317 217.665 43.1074C225.446 44.284 233.105 45.8836 240.507 48.8192C248.035 51.8042 254.869 55.3599 258.551 63.0723C258.998 64.0105 259.516 64.3304 260.539 63.7963C261.596 63.2442 262.67 62.7227 263.744 62.2012L263.745 62.2009C265.152 61.5177 266.559 60.8346 267.928 60.0829C268.336 59.8591 268.757 59.6415 269.18 59.4226L269.181 59.4222C270.799 58.5859 272.452 57.731 273.563 56.44C276.748 52.8683 278.647 48.3319 278.957 43.5543C279.183 39.71 278.555 35.856 276.332 32.8291L276.151 32.5819C273.541 29.0267 270.797 25.2886 266.647 23.392C265.861 23.0327 265.258 22.4015 264.659 21.7747C263.695 20.7661 262.742 19.7691 261.056 19.9354C260.916 19.9494 260.753 19.6665 260.581 19.3684C260.481 19.1969 260.379 19.0204 260.277 18.8924C259.898 18.4169 259.33 18.2267 258.761 18.0364C258.033 17.7928 257.304 17.5489 256.971 16.7054C256.854 16.7803 256.727 16.8387 256.594 16.879C256.422 16.906 256.243 16.9502 256.064 16.9946C255.639 17.0997 255.21 17.2057 254.862 17.0848C254.024 16.7935 253.186 16.4991 252.348 16.2047C247.254 14.4142 242.165 12.6252 236.841 11.5493C231.158 10.4009 225.51 9.73113 219.661 10.103C218.659 10.1667 217.654 10.3051 216.644 10.4442C213.989 10.8097 211.307 11.1791 208.603 10.2009C208.201 10.0552 207.676 10.3336 207.122 10.6277C206.687 10.8585 206.234 11.0989 205.807 11.1518C204.811 11.2756 203.814 11.4008 202.818 11.5261C197.427 12.2036 192.035 12.8815 186.624 13.3251C184.29 13.5163 181.99 13.9688 179.689 14.4215C175.832 15.1802 171.972 15.9396 167.942 15.4716C166.468 15.3002 164.493 15.2896 163.084 17.0377C162.774 17.4226 162.183 17.3672 161.487 17.3019C160.771 17.2347 159.943 17.1571 159.197 17.5391C158.105 18.098 156.746 18.1311 155.385 18.1642C154.786 18.1788 154.187 18.1934 153.61 18.253C153.576 18.2565 153.545 18.279 153.513 18.3019C153.485 18.3223 153.456 18.3429 153.425 18.3504C150.925 18.9442 148.477 19.7352 146.038 20.5235C144.431 21.0425 142.829 21.5604 141.217 22.0202C125.843 26.4052 110.532 30.9246 95.6017 36.6659C94.5083 37.0864 93.4224 37.5311 92.3367 37.9757C90.0818 38.8992 87.8274 39.8224 85.5067 40.5283C84.6205 40.7978 83.7297 41.0491 82.8402 41.3C79.1197 42.3494 75.4199 43.393 72.1605 45.7448C71.1913 46.4439 70.0121 46.8447 68.8282 47.247C68.1676 47.4715 67.5055 47.6964 66.8777 47.9741C66.2134 48.3309 65.5802 48.7429 64.9847 49.2057L59.4052 52.5058ZM152.747 51.7613L152.729 51.7828C152.786 51.8128 152.842 51.8427 152.897 51.8723L152.904 51.8762L152.906 51.877C153.796 52.3533 154.531 52.7469 155.776 52.0517C156.592 51.5955 157.646 51.5552 158.703 51.5149C159.19 51.4963 159.678 51.4776 160.143 51.4181C161.36 51.2628 162.574 51.0883 163.787 50.9099C164.5 50.8279 165.207 50.7052 165.906 50.5426C166.042 50.5061 166.249 50.534 166.462 50.5627C167.044 50.6414 167.67 50.726 167.027 49.5087C166.976 49.4112 167.286 48.9843 167.341 49.0004C167.432 49.0271 167.534 49.052 167.639 49.0777C168.03 49.1739 168.461 49.28 168.572 49.5183C169.356 51.2034 170.508 50.8752 171.778 50.5135C171.919 50.4731 172.063 50.4323 172.207 50.3938C172.403 50.3418 172.598 50.2864 172.793 50.231C174.254 49.8167 175.72 49.4011 177.308 50.3633C177.717 50.6111 178.375 50.455 179.039 50.2974C179.362 50.2206 179.687 50.1435 179.986 50.1127C180.847 50.024 181.713 49.953 182.575 49.8823L182.907 49.8551C183.288 49.824 183.668 49.786 184.049 49.7481C184.978 49.6556 185.908 49.563 186.836 49.5692C187.717 49.5736 188.596 49.6545 189.475 49.7355L189.475 49.7355L189.475 49.7355L189.475 49.7355L189.476 49.7355L189.476 49.7355L189.476 49.7355L189.476 49.7356L189.476 49.7356C190.056 49.7889 190.636 49.8423 191.216 49.8738C192.765 49.9578 194.314 50.0557 195.863 50.1537L195.863 50.1537C199.884 50.4081 203.906 50.6624 207.927 50.6719C209.263 50.6751 210.582 50.8509 211.9 51.0267C213.811 51.2814 215.72 51.5359 217.675 51.2637C218.397 51.163 219.162 51.3546 219.926 51.5462C220.276 51.6338 220.625 51.7214 220.97 51.7811L221.376 51.2554L219.662 50.9447L220.294 50.1888C220.455 50.29 220.619 50.3881 220.782 50.4862C221.159 50.7123 221.535 50.9385 221.881 51.2032C222.048 51.3302 222.194 51.5084 222.337 51.6835C222.552 51.9467 222.761 52.2028 223.027 52.2671C225.039 52.7551 227.071 53.1848 229.103 53.6144C233.317 54.5053 237.528 55.3957 241.553 56.8049C246.195 58.431 250.739 60.8257 254.212 64.6032C255.256 65.7377 255.438 66.3934 253.67 67.111C239.753 72.7567 225.477 77.354 211.039 81.4984C190.524 87.3869 169.7 91.9882 148.712 95.8723C136.028 98.22 123.326 100.537 110.564 102.421C87.7449 105.792 64.8843 109.01 41.7376 109C38.2266 109 34.7126 108.529 31.2011 108.059C29.7839 107.869 28.3672 107.679 26.9512 107.52C25.2774 107.332 24.4375 106.466 25.4176 104.823C26.2643 103.263 27.2655 101.79 28.4065 100.424C28.6615 100.144 28.9162 99.8623 29.1713 99.5802C31.1721 97.3668 33.1939 95.1304 35.5422 93.3315C36.3746 92.6935 37.2009 92.0447 38.0277 91.3954L38.0278 91.3953L38.0279 91.3952L38.028 91.3951L38.0281 91.3951L38.0282 91.395L38.0283 91.3949L38.0284 91.3949L38.0284 91.3948C41.9595 88.3078 45.9037 85.2105 50.589 83.2199C51.5225 82.8221 52.4782 82.4738 53.4336 82.1255C54.6374 81.6868 55.8409 81.2482 56.9992 80.7108C58.1996 80.1534 59.3538 79.5015 60.5084 78.8492L60.5085 78.8491L60.5087 78.849C61.4219 78.3332 62.3354 77.8171 63.2724 77.3475C65.5704 76.1957 67.9187 75.1387 70.2733 74.1017C70.5753 73.9688 70.9163 73.9179 71.2564 73.8671L71.2565 73.867C71.6212 73.8125 71.9851 73.7582 72.2989 73.603C76.7942 71.3797 81.5712 69.944 86.3484 68.5083L86.3484 68.5083C89.2474 67.6371 92.1465 66.7658 94.9827 65.7185C95.4051 65.5625 95.8278 65.4057 96.2507 65.2488C100.252 63.764 104.284 62.2682 108.43 61.3544C115.799 59.7306 123.205 58.269 130.611 56.8074L130.612 56.8073L130.612 56.8071L130.613 56.807L130.614 56.8069L130.614 56.8069L130.614 56.8068L130.615 56.8067L130.615 56.8066C134.9 55.961 139.185 55.1154 143.463 54.2384C144.222 54.0828 144.952 53.7835 145.681 53.4842C146.406 53.1867 147.132 52.8891 147.887 52.7327C148.448 52.6162 149.047 52.6895 149.65 52.7632C150.172 52.8272 150.697 52.8914 151.202 52.8324C151.598 52.7863 151.961 52.4571 152.322 52.1288C152.463 52.0005 152.604 51.8723 152.747 51.7613ZM152.79 51.7106L152.808 51.7154C152.788 51.7303 152.767 51.7456 152.747 51.7613L152.79 51.7106ZM152.79 51.7106L150.244 51.0309C151.019 50.6985 151.811 50.4051 152.617 50.1519C152.859 50.0862 153.137 50.1438 153.458 50.2107C153.618 50.2439 153.789 50.2795 153.972 50.3033L152.79 51.7106ZM271.372 11.3799C271.263 11.4842 271.15 11.6206 271.037 11.757C270.793 12.0506 270.55 12.3444 270.347 12.319C268.474 12.0828 266.607 11.7939 264.74 11.5048C263.716 11.3464 262.693 11.1879 261.667 11.038C261.113 10.9937 260.555 10.9881 260 11.0212C260.319 11.4617 260.693 11.8614 261.112 12.2113C262.105 12.8541 263.115 13.4742 264.124 14.0942L264.124 14.0947C265.716 15.0726 267.307 16.0503 268.835 17.1167C277.265 22.9997 282.439 30.961 283.902 41.0638C284.169 42.9095 284.104 44.802 284.033 46.8641C283.998 47.8648 283.962 48.9054 283.962 50C290.08 45.5332 295.064 40.8893 297.931 34.5456C299.328 31.4535 299.584 27.978 297.304 25.0139C293.091 19.5443 286.908 17.2797 280.736 15.0195L280.733 15.0183L280.732 15.0179C280.148 14.8039 279.563 14.5898 278.981 14.3731C278.144 14.0622 277.248 13.8987 276.355 13.7357C274.487 13.3949 272.633 13.0565 271.372 11.3799ZM65.1252 34.3936C118.365 7.31254 164.728 0.598297 194 1.01821C133.058 3.34668 77.3237 23.3028 27 59C38.7886 49.4525 51.5707 41.2028 65.1252 34.3936ZM30 87.543L30.2609 88C31.1523 87.4282 32.0395 86.8493 32.9267 86.2705L32.927 86.2703L32.9273 86.2701L32.9276 86.2699L32.9278 86.2697L32.9281 86.2696C34.866 85.0052 36.8038 83.7408 38.7862 82.5499C49.0144 76.4054 59.6232 70.9755 70.7936 66.7748C71.4354 66.5334 72.0773 66.2917 72.7193 66.0499C81.9071 62.5902 91.126 59.1188 100.567 56.505C112.841 53.1068 125.334 50.4612 137.806 47.82L139.061 47.5542C142.889 46.7426 146.805 46.3418 150.72 45.9412C152.338 45.7756 153.956 45.61 155.567 45.4155C158.378 45.0762 161.195 44.781 164.012 44.4858L164.014 44.4856L165.243 44.3567C167.717 44.0968 170.193 43.8492 172.668 43.6016L172.67 43.6014C173.447 43.5237 174.223 43.4461 175 43.368C172.48 43.0839 169.97 42.8417 167.523 43.1294C160.056 44.0073 152.602 45.0158 145.163 46.1063C125.699 48.9589 106.488 53.0163 87.9292 59.5896C76.9321 63.485 66.1164 67.9275 55.3718 72.4808C46.2523 76.2973 37.7124 81.3671 30 87.543ZM225.626 101L226 101.592C225.606 101.853 225.219 102.128 224.831 102.402C223.992 102.997 223.152 103.592 222.245 104.054C219.291 105.556 216.284 106.954 213.277 108.351L213.277 108.352L212.863 108.544C211.574 109.143 210.289 109.751 209.005 110.359C205.473 112.03 201.94 113.701 198.333 115.187C190.889 118.249 183.389 121.159 175.832 123.916C174.386 124.444 174.137 125.429 173.884 126.433L173.884 126.433C173.788 126.814 173.692 127.197 173.529 127.56C173.238 128.131 172.916 128.685 172.564 129.221C172.506 129.029 172.427 128.834 172.348 128.639C172.175 128.212 172.001 127.785 172.05 127.386C172.262 125.621 171.606 125.514 170.13 125.967C155.216 130.529 140.299 135.074 125.377 139.602C124.29 139.964 123.137 140.081 122 139.945C122.656 139.754 123.314 139.566 123.971 139.379C125.376 138.977 126.781 138.576 128.176 138.143C142.207 133.81 156.224 129.43 170.228 125.004C170.851 124.806 171.393 124.345 171.934 123.884C172.186 123.669 172.439 123.454 172.699 123.266C172.932 123.068 173.181 122.89 173.445 122.736C174.557 123.877 175.612 123.315 176.573 122.804C176.839 122.662 177.098 122.524 177.349 122.428C184.8 119.558 192.241 116.65 199.59 113.527C205.576 110.982 211.461 108.197 217.343 105.413L217.929 105.136C219.739 104.279 221.49 103.3 223.241 102.32C224.034 101.876 224.827 101.432 225.626 101ZM136 101.453L136.13 102C138.15 101.631 140.17 101.27 142.191 100.908L142.193 100.908L142.195 100.908L142.195 100.908L142.196 100.908C146.625 100.115 151.054 99.323 155.468 98.4547C172.443 95.1155 189.373 91.5618 206.004 86.785C212.42 84.9424 218.779 82.9047 225.136 80.8676L226.073 80.5671C228.365 79.8328 230.627 79.0096 232.889 78.1864L232.89 78.1864L232.89 78.1863L232.89 78.1862C233.969 77.7937 235.047 77.4011 236.129 77.0183C236.996 76.7115 237.866 76.4109 238.735 76.1103C239.157 75.9644 239.578 75.8185 240 75.6719C239.923 75.4476 239.846 75.2237 239.769 75C206.001 86.9188 171.254 95.1453 136 101.451V101.453ZM227 89C200.617 100.052 173.038 106.423 145.001 111L145 110.998C172.82 105.71 200.226 98.3582 227 89ZM251.972 3L252 2.65282L232.031 2L232 2.41899L251.972 3ZM117.184 142L117 141.58L120.866 141C120.91 141.101 120.955 141.203 121 141.304L117.184 142Z" fill="#FDEFD0"/>
</svg>
